<svg id="Layer_1" data-name="Layer 1" xmlns="http://www.w3.org/2000/svg" viewBox="0 0 24 18"><defs><style>.cls-1,.cls-2{fill:#4e4e6d;}.cls-2{fill-rule:evenodd;}</style></defs><path class="cls-1" d="M16,7a1,1,0,0,0,0,2h3a1,1,0,0,0,0-2Z" transform="translate(0 -3)"/><path class="cls-1" d="M15,12a1,1,0,0,1,1-1h3a1,1,0,0,1,0,2H16A1,1,0,0,1,15,12Z" transform="translate(0 -3)"/><path class="cls-1" d="M16,15a1,1,0,0,0,0,2h3a1,1,0,0,0,0-2Z" transform="translate(0 -3)"/><path class="cls-2" d="M3,3A3,3,0,0,0,0,6V18a3,3,0,0,0,3,3H21a3,3,0,0,0,3-3V6a3,3,0,0,0-3-3ZM21,5H13V19h8a1,1,0,0,0,1-1V6A1,1,0,0,0,21,5ZM3,5h8V19H3a1,1,0,0,1-1-1V6A1,1,0,0,1,3,5Z" transform="translate(0 -3)"/></svg>